<svg width="105" height="27" viewBox="0 0 105 27" fill="none" xmlns="http://www.w3.org/2000/svg">
<path d="M95.7404 27C93.9644 27 92.4284 26.676 91.1324 26.028C89.8364 25.356 88.8285 24.432 88.1085 23.256C87.4125 22.056 87.0645 20.664 87.0645 19.08V7.92C87.0645 6.336 87.4125 4.956 88.1085 3.78C88.8285 2.58 89.8364 1.656 91.1324 1.008C92.4284 0.336 93.9525 0 95.7045 0C97.4805 0 99.0045 0.336 100.276 1.008C101.572 1.656 102.568 2.58 103.264 3.78C103.984 4.956 104.344 6.336 104.344 7.92V19.08C104.344 20.664 103.984 22.056 103.264 23.256C102.568 24.432 101.572 25.356 100.276 26.028C99.0045 26.676 97.4924 27 95.7404 27ZM95.7045 22.32C96.8325 22.32 97.7085 22.032 98.3325 21.456C98.9805 20.88 99.3045 20.088 99.3045 19.08V7.92C99.3045 6.912 98.9805 6.12 98.3325 5.544C97.7085 4.968 96.8325 4.68 95.7045 4.68C94.5765 4.68 93.6885 4.968 93.0405 5.544C92.4165 6.12 92.1044 6.912 92.1044 7.92V19.08C92.1044 20.088 92.4284 20.88 93.0764 21.456C93.7244 22.032 94.6005 22.32 95.7045 22.32ZM95.7045 15.984C94.9605 15.984 94.3484 15.744 93.8684 15.264C93.4124 14.784 93.1844 14.16 93.1844 13.392C93.1844 12.624 93.4124 12.012 93.8684 11.556C94.3484 11.1 94.9605 10.872 95.7045 10.872C96.4725 10.872 97.0845 11.1 97.5405 11.556C97.9965 12.012 98.2244 12.624 98.2244 13.392C98.2244 14.16 97.9965 14.784 97.5405 15.264C97.0845 15.744 96.4725 15.984 95.7045 15.984Z" fill="black"/>
<path d="M66.198 26.64V21.96H72.822V5.29198L66.126 10.26V4.67999L72.282 0.359985H78.222V21.96H83.478V26.64H66.198Z" fill="black"/>
<path d="M52.5325 27C50.7085 27 49.1245 26.7 47.7805 26.1C46.4605 25.476 45.4285 24.624 44.6845 23.544C43.9645 22.44 43.6045 21.168 43.6045 19.728C43.6045 18.096 44.0605 16.716 44.9725 15.588C45.9085 14.46 47.2165 13.536 48.8965 12.816L53.2885 10.908C54.0325 10.572 54.6205 10.104 55.0525 9.504C55.4845 8.88 55.7005 8.184 55.7005 7.416C55.7005 6.552 55.4125 5.856 54.8365 5.328C54.2845 4.8 53.5165 4.536 52.5325 4.536C51.5485 4.536 50.7565 4.8 50.1565 5.328C49.5805 5.856 49.2925 6.552 49.2925 7.416C49.2925 8.16 49.5205 8.844 49.9765 9.468C50.4325 10.068 51.0325 10.536 51.7765 10.872L56.1685 12.816C58.0165 13.632 59.3605 14.616 60.2005 15.768C61.0405 16.896 61.4605 18.216 61.4605 19.728C61.4605 21.96 60.6565 23.736 59.0485 25.056C57.4405 26.352 55.2685 27 52.5325 27ZM52.5325 22.464C53.6125 22.464 54.4765 22.164 55.1245 21.564C55.7965 20.964 56.1325 20.208 56.1325 19.296C56.1325 18.576 55.8925 17.868 55.4125 17.172C54.9325 16.476 54.3085 15.96 53.5405 15.624L48.6445 13.428C47.2045 12.78 46.0645 11.928 45.2245 10.872C44.3845 9.792 43.9645 8.52 43.9645 7.056C43.9645 5.736 44.3125 4.548 45.0085 3.492C45.7045 2.412 46.6885 1.56 47.9605 0.935999C49.2565 0.312 50.7805 0 52.5325 0C54.2845 0 55.7845 0.312 57.0325 0.935999C58.3045 1.56 59.2885 2.412 59.9845 3.492C60.6805 4.548 61.0285 5.736 61.0285 7.056C61.0285 8.592 60.6205 9.888 59.8045 10.944C58.9885 11.976 57.8725 12.804 56.4565 13.428L51.5245 15.624C50.7565 15.96 50.1325 16.476 49.6525 17.172C49.1725 17.844 48.9325 18.54 48.9325 19.26C48.9325 20.196 49.2565 20.964 49.9045 21.564C50.5765 22.164 51.4525 22.464 52.5325 22.464Z" fill="black"/>
<path d="M22.5225 26.64V0.359985H30.9825C33.6465 0.359985 35.7705 0.971986 37.3545 2.19599C38.9385 3.39599 39.7305 5.02798 39.7305 7.09198C39.7305 8.24398 39.4545 9.25199 38.9025 10.116C38.3745 10.98 37.6545 11.652 36.7425 12.132C35.8545 12.612 34.8825 12.852 33.8265 12.852V12.96C35.0025 12.936 36.0705 13.152 37.0305 13.608C38.0145 14.064 38.8065 14.748 39.4065 15.66C40.0065 16.572 40.3065 17.7 40.3065 19.044C40.3065 20.58 39.9345 21.924 39.1905 23.076C38.4705 24.204 37.4385 25.08 36.0945 25.704C34.7505 26.328 33.1545 26.64 31.3065 26.64H22.5225ZM27.7425 22.284H31.0905C32.2665 22.284 33.1905 21.972 33.8625 21.348C34.5345 20.724 34.8705 19.86 34.8705 18.756C34.8705 17.652 34.5345 16.788 33.8625 16.164C33.1905 15.516 32.2665 15.192 31.0905 15.192H27.7425V22.284ZM27.7425 10.944H30.9105C31.9665 10.944 32.7945 10.668 33.3945 10.116C33.9945 9.53999 34.2945 8.77199 34.2945 7.81199C34.2945 6.82799 33.9945 6.07199 33.3945 5.54399C32.7945 4.99199 31.9665 4.71599 30.9105 4.71599H27.7425V10.944Z" fill="black"/>
<path d="M6.66 26.64V5.39998H0V0.359985H18.72V5.39998H12.06V26.64H6.66Z" fill="black"/>
</svg>
